<?xml version="1.0" standalone="no"?><!DOCTYPE svg PUBLIC "-//W3C//DTD SVG 1.1//EN" "http://www.w3.org/Graphics/SVG/1.1/DTD/svg11.dtd"><svg class="icon" width="200px" height="200.00px" viewBox="0 0 1024 1024" version="1.1" xmlns="http://www.w3.org/2000/svg"><path fill="#333333" d="M512 128c-212.21 0-384.23 172-384.23 384.23S299.79 896.46 512 896.46s384.23-172 384.23-384.23S724.21 128 512 128z m0 722.36c-186.74 0-338.12-151.38-338.12-338.12S325.26 174.1 512 174.1s338.12 151.38 338.12 338.12S698.74 850.35 512 850.35zM627.27 489.17h-92.22V397A23.12 23.12 0 0 0 512 373.9a23.12 23.12 0 0 0-23.05 23.1v92.22h-92.22a23.12 23.12 0 0 0-23.05 23.05 23.12 23.12 0 0 0 23.05 23.05h92.22v92.22A23.12 23.12 0 0 0 512 650.55a23.12 23.12 0 0 0 23.05-23.05v-92.22h92.22a23.12 23.12 0 0 0 23.05-23.05 23.12 23.12 0 0 0-23.05-23.06z" /></svg>